P2 768 8 255
255
255
0
0
255
255
255
255
255
0
0
255
0
0
255
255
255
0
0
255
0
0
255
255
255
255
0
0
255
255
255
255
255
255
255
255
255
255
255
255
255
255
0
0
0
255
255
255
255
0
0
255
255
255
255
255
255
255
255
0
0
255
255
255
255
0
0
255
255
255
255
255
255
255
255
255
255
255
255
255
255
255
255
255
255
255
255
255
255
255
255
255
255
255
255
255
255
255
255
255
255
255
255
255
255
255
255
255
255
255
255
255
255
255
255
255
255
0
0
255
255
0
0
0
0
0
255
255
255
255
0
0
255
255
255
255
255
0
0
0
0
255
255
255
255
0
0
0
0
255
255
255
255
255
255
0
0
0
255
255
0
0
0
0
0
0
255
255
255
255
0
0
0
255
255
255
0
0
0
0
0
0
255
255
255
0
0
0
0
255
255
255
255
0
0
0
0
255
255
255
255
255
255
255
255
255
255
255
255
255
255
255
255
255
255
255
255
255
255
0
0
255
255
255
255
255
255
255
255
255
255
255
255
0
0
255
255
255
255
255
255
0
0
0
0
255
255
255
255
0
0
0
0
0
255
255
255
255
0
0
255
255
255
255
0
0
0
0
0
0
255
255
255
255
0
0
0
0
255
255
0
0
0
0
0
255
255
255
0
0
0
0
0
0
0
255
0
0
0
0
0
0
0
255
255
255
0
0
0
0
255
255
0
0
255
255
0
0
255
255
255
0
0
0
0
255
255
255
255
255
255
0
0
0
0
255
0
0
0
255
255
0
0
255
0
0
0
0
255
255
255
255
0
0
255
255
255
0
0
255
0
0
255
255
255
0
0
255
255
255
0
0
0
255
255
255
0
0
0
0
0
0
255
255
255
0
0
0
0
255
255
255
0
0
0
0
0
0
255
255
255
0
0
0
0
255
255
255
0
0
0
0
0
0
255
255
0
0
255
255
0
0
255
255
0
0
255
255
0
0
255
255
0
0
255
255
255
0
0
255
0
0
255
255
255
0
0
255
0
0
255
255
0
0
255
255
0
0
0
0
0
0
0
255
255
0
0
0
0
255
255
255
0
0
255
255
255
255
255
255
255
0
0
0
0
255
255
255
255
255
255
0
255
255
255
255
255
255
255
255
255
255
255
255
255
255
0
0
255
255
255
255
255
255
255
255
255
255
255
255
0
0
0
255
255
255
255
255
255
255
255
255
255
255
255
255
255
255
255
0
0
0
255
255
255
255
255
255
255
255
255
255
255
255
0
0
0
255
255
255
255
255
255
255
255
255
255
255
0
0
0
255
255
255
255
255
255
255
0
0
255
255
255
255
255
255
255
255
0
0
255
255
0
0
0
255
255
255
255
255
255
0
0
0
255
255
255
255
255
255
255
255
255
255
255
255
255
255
255
255
255
255
255
255
255
255
255
255
255
255
255
255
255
255
255
255
255
255
255
255
255
255
255
255
255
255
255
255
255
255
255
255
255
255
255
255
255
255
255
255
255
255
255
255
255
255
255
0
255
255
255
255
255
255
255
255
255
255
255
255
255
255
255
255
255
255
255
255
255
255
255
255
255
255
255
255
255
255
255
255
255
255
255
255
255
255
255
255
255
255
255
255
255
255
255
255
255
255
255
255
255
255
255
0
0
0
255
255
255
255
255
0
0
255
255
255
0
0
0
255
255
255
255
255
255
255
255
255
255
255
0
255
0
255
255
255
255
255
255
255
255
255
255
255
255
255
255
255
255
0
0
0
0
255
255
255
255
0
0
255
0
0
255
255
255
0
0
255
0
0
255
255
255
0
0
0
0
0
255
255
0
0
255
255
255
0
0
255
255
0
0
255
0
0
255
255
255
0
0
255
255
255
255
255
255
255
0
0
255
255
255
255
255
255
0
0
255
255
255
255
255
0
0
255
255
0
0
255
255
255
0
0
255
255
255
255
255
255
255
255
255
255
255
255
255
255
255
255
255
255
255
255
255
255
255
255
255
255
255
255
255
255
255
255
0
0
255
255
0
0
255
255
255
0
0
255
255
0
0
0
255
255
255
255
0
0
255
255
0
0
255
255
0
0
255
255
0
0
255
255
255
255
0
0
0
0
255
255
0
0
255
255
255
255
255
255
255
0
0
255
255
255
255
255
0
0
255
255
0
0
255
255
0
0
255
255
0
0
255
255
0
0
255
255
0
0
255
255
255
255
0
0
255
255
255
255
255
255
0
0
255
255
255
255
255
255
0
0
255
255
255
255
255
255
255
255
255
255
255
255
255
255
0
0
255
255
255
255
0
0
255
255
0
0
255
255
0
0
255
255
255
0
0
255
255
0
0
0
0
255
255
255
255
0
0
255
255
0
0
255
255
0
0
255
255
0
0
255
255
0
0
255
0
0
255
255
255
0
0
255
255
255
0
255
255
0
0
255
255
255
0
255
255
0
0
255
255
0
0
255
0
0
255
255
0
0
255
255
255
255
0
0
255
255
255
255
255
255
255
255
0
0
255
255
255
0
0
255
255
0
0
255
255
0
0
255
255
255
255
255
0
0
0
255
0
0
0
255
0
0
0
255
255
0
0
255
255
0
0
255
0
0
255
255
255
0
0
255
255
0
0
255
0
0
255
255
0
0
255
255
255
0
0
255
255
0
0
255
0
0
255
255
0
0
255
255
0
255
0
0
255
0
255
255
0
0
255
255
0
0
255
255
0
0
255
255
0
0
255
255
0
0
255
255
255
0
0
255
0
0
255
255
255
0
0
255
0
0
255
255
0
0
255
255
0
0
255
255
255
0
0
255
255
0
0
255
255
255
255
255
255
0
0
255
255
255
255
255
255
255
255
0
0
255
255
255
255
255
0
0
0
255
255
255
255
255
255
255
255
255
255
255
255
255
0
0
255
255
255
255
255
255
255
255
255
255
255
255
255
0
0
255
255
255
255
255
255
255
255
255
255
255
255
255
255
255
255
255
0
0
255
255
255
255
255
255
255
255
255
255
255
0
0
255
0
0
255
255
255
255
255
255
255
255
255
255
255
0
0
255
255
255
255
255
255
255
255
255
255
255
255
255
255
255
255
255
255
255
255
255
255
0
0
255
255
255
255
255
255
255
0
0
255
255
255
255
255
255
255
255
255
255
255
255
255
255
255
255
255
255
255
255
255
255
255
255
255
255
255
255
255
255
255
255
255
255
255
255
255
255
255
255
255
255
255
255
255
255
255
255
255
255
255
255
255
255
255
255
255
255
255
255
255
255
0
0
255
255
255
255
255
255
255
255
255
255
255
255
255
255
255
255
255
255
255
255
255
255
255
255
255
255
255
255
255
255
255
255
255
255
255
255
255
255
255
255
255
255
255
255
255
255
255
255
255
255
255
255
255
255
0
0
255
255
255
255
255
255
255
0
0
255
255
255
255
255
0
0
255
255
255
255
255
255
255
255
0
0
0
255
0
0
0
255
255
255
255
255
255
255
255
0
0
255
255
255
255
0
0
0
0
255
255
255
255
0
0
255
0
0
255
255
0
0
0
0
0
0
0
255
0
0
255
255
255
255
255
255
0
0
255
255
0
0
255
255
255
255
0
0
0
255
255
255
0
0
255
255
255
255
255
255
255
0
0
255
255
255
255
255
255
255
255
0
0
255
255
255
255
255
0
0
0
0
255
255
255
255
0
0
255
255
255
255
255
255
255
255
255
255
255
255
255
255
255
255
255
255
255
255
255
255
255
255
255
255
255
255
255
255
255
0
0
255
255
255
0
0
255
255
0
0
0
255
255
255
0
0
255
255
255
255
255
255
255
255
0
0
255
255
255
255
255
255
0
0
255
255
255
0
0
255
0
0
255
255
0
0
0
0
0
255
255
255
0
0
255
255
255
255
255
255
255
255
255
255
0
0
255
255
0
0
255
255
0
0
255
255
0
0
255
255
0
0
255
255
255
255
0
0
255
255
255
255
255
255
0
0
255
255
255
255
255
0
0
255
255
255
255
255
0
0
0
0
0
0
255
255
255
255
255
0
0
255
255
255
255
255
255
255
0
0
255
255
0
0
255
0
0
0
0
255
0
0
255
255
0
0
255
255
255
0
0
255
255
0
0
255
0
0
255
255
255
255
255
255
255
0
0
255
255
0
0
255
255
0
0
255
0
255
255
255
255
0
0
255
0
255
255
255
0
0
255
255
255
255
255
255
0
0
255
255
0
0
255
255
255
255
0
0
255
255
255
255
255
255
255
255
0
0
255
255
255
0
0
255
0
0
255
255
255
0
0
255
255
255
255
255
0
0
0
0
0
0
0
255
0
0
0
0
255
0
0
255
0
0
255
255
255
0
0
255
255
0
0
255
255
0
0
255
0
0
255
255
0
0
255
255
255
0
0
255
255
0
0
255
0
0
0
255
255
255
255
255
255
255
0
0
255
255
255
255
0
0
255
255
0
0
255
255
0
0
255
255
0
0
255
255
0
0
255
255
255
0
0
255
255
0
0
255
0
0
255
255
0
0
255
255
0
0
255
255
0
255
255
255
0
0
255
255
255
0
0
255
255
255
255
255
255
255
0
0
255
255
255
255
255
255
255
0
0
255
255
255
255
0
0
255
0
0
255
255
255
255
255
255
255
255
255
255
255
255
255
0
0
255
255
255
255
0
0
0
0
255
255
255
255
0
0
255
255
255
255
255
255
0
0
0
0
255
255
255
255
255
255
255
0
0
255
255
255
0
0
0
0
255
255
255
255
0
0
255
255
255
255
255
255
0
0
0
255
0
0
255
255
0
0
255
0
0
255
255
255
0
0
0
255
255
255
255
255
255
255
255
0
0
255
255
255
0
0
255
255
0
0
255
255
255
0
0
255
255
255
255
0
0
255
255
0
0
255
255
0
0
0
0
0
255
255
255
255
0
0
0
0
255
255
255
0
0
255
0
0
0
255
255
255
0
0
0
255
0
0
255
0
0
255
0
0
0
255
255
255
0
0
0
0
0
255
255
255
0
0
0
0
0
255
255
0
0
255
255
0
0
255
255
0
0
255
255
0
0
255
255
0
0
255
255
255
0
0
255
0
0
255
255
255
0
0
255
0
0
255
255
0
0
255
255
0
0
0
0
0
0
255
255
255
255
0
0
255
255
255
255
255
255
255
0
0
255
255
255
255
255
0
0
255
255
255
255
255
255
0
0
0
0
0
255
0
0
0
0
0
255
255
255
255
255
0
0
0
0
255
255
255
255
0
0
255
255
255
255
255
255
255
255
255
255
255
255
255
0
0
255
0
0
255
255
255
0
0
0
0
255
255
255
255
255
255
0
0
255
255
255
255
0
0
0
255
0
0
255
255
255
255
255
255
255
255
255
255
0
0
255
255
255
255
255
255
255
255
0
0
255
255
255
0
0
0
0
0
0
0
0
0
0
0
0
0
0
255
255
255
255
255
255
255
255
255
255
0
0
0
0
0
0
255
255
255
255
255
255
255
255
255
255
255
255
0
0
255
255
255
255
0
0
255
0
0
0
0
255
255
255
0
0
255
255
255
255
255
255
0
0
0
255
255
255
255
255
0
0
0
255
255
255
0
0
255
255
0
0
255
255
255
255
255
255
0
0
255
255
0
0
0
0
0
255
255
255
255
255
255
0
0
255
255
255
255
0
0
0
0
255
255
255
255
0
0
0
0
0
255
255
255
255
255
255
255
255
255
255
255
255
255
255
255
255
255
255
0
0
255
255
255
255
255
255
255
255
255
255
255
255
255
255
255
255
255
255
0
0
255
255
255
255
255
0
0
255
255
255
0
0
255
0
0
0
0
255
0
0
255
255
0
0
255
255
255
0
0
0
0
0
255
255
0
0
255
255
255
255
255
255
255
0
0
255
255
0
0
255
255
0
0
0
0
255
255
255
255
0
0
0
0
255
255
255
0
0
255
255
255
255
255
255
0
0
0
0
0
0
255
255
255
255
0
0
255
255
255
255
255
255
255
255
0
0
255
255
255
0
0
0
0
255
255
255
255
0
0
255
255
255
255
255
0
0
0
0
0
0
0
255
0
0
255
0
0
0
0
255
0
0
255
255
255
0
0
255
255
0
0
0
0
0
255
255
0
0
255
255
0
0
255
255
255
0
0
0
0
0
255
255
255
0
0
0
255
255
255
255
255
255
0
0
255
255
255
255
0
0
255
255
0
0
255
255
0
0
255
255
0
0
255
255
0
0
255
0
255
0
0
255
255
255
0
0
0
255
255
255
255
0
0
0
0
255
255
255
255
255
255
0
0
255
255
255
255
0
0
255
255
255
255
255
255
255
255
0
0
255
255
255
255
255
255
0
0
255
255
255
0
0
255
255
255
0
0
255
255
255
255
255
255
255
255
255
255
255
255
255
255
255
255
255
255
255
255
255
0
0
255
255
255
0
0
0
0
0
255
255
0
0
255
255
0
0
255
255
255
0
0
0
0
0
255
255
0
0
255
255
0
0
255
255
0
0
0
0
255
255
255
255
0
0
255
255
0
0
255
255
255
0
0
0
255
0
0
255
255
255
0
0
255
255
255
255
255
255
255
255
0
0
255
255
255
0
0
255
0
0
255
255
255
255
0
0
255
255
255
255
0
0
0
0
0
0
0
255
0
0
255
255
0
0
255
255
0
0
255
255
0
0
255
255
255
0
0
255
255
0
0
255
0
0
255
255
0
0
255
255
255
0
0
0
255
0
0
255
0
0
255
255
255
255
255
255
255
255
0
0
255
255
255
255
0
0
255
255
0
0
255
255
0
0
255
255
0
0
255
255
0
0
255
0
255
0
0
255
255
0
0
255
0
0
255
255
0
0
255
255
0
0
255
255
0
255
255
0
0
255
255
255
0
0
0
255
255
255
255
255
255
255
255
255
255
255
255
255
255
255
255
0
0
0
255
255
0
0
0
0
0
0
0
255
0
0
0
0
0
0
0
255
255
0
0
0
0
0
0
255
255
255
0
0
255
255
255
255
255
255
255
255
255
255
255
255
0
0
0
0
0
0
0
255
255
255
255
255
0
0
255
255
255
255
0
0
255
255
255
255
0
0
255
0
0
0
255
255
255
255
255
255
255
255
255
255
255
0
0
255
255
255
255
255
255
255
255
0
0
255
255
255
255
255
0
0
0
0
255
255
255
255
0
0
255
255
255
255
255
255
255
255
255
255
255
255
255
255
255
255
255
255
255
255
255
255
255
255
255
255
255
255
255
0
0
255
255
255
255
255
0
0
0
0
255
0
0
255
255
255
0
0
255
255
255
255
255
0
0
255
255
255
255
255
255
255
255
255
0
0
255
255
0
0
0
0
0
0
0
255
255
255
255
255
0
0
255
255
0
0
255
255
0
0
255
255
255
255
0
0
255
255
255
255
0
0
255
255
0
0
255
255
255
255
255
255
0
0
255
255
255
255
255
255
255
255
255
255
255
255
255
255
255
255
255
255
255
0
0
255
255
255
255
255
255
255
255
255
255
255
255
255
255
255
255
0
0
255
255
255
255
255
0
0
255
255
255
255
0
0
255
0
0
0
0
255
0
0
0
0
0
0
255
255
255
0
0
255
255
0
0
255
0
0
255
255
255
255
255
255
255
0
0
255
255
0
0
255
255
0
0
255
0
255
255
255
255
0
0
255
0
255
255
255
0
0
255
255
0
0
0
255
0
0
255
255
0
0
255
255
255
255
0
0
255
255
255
255
0
0
255
255
0
0
255
255
255
0
0
255
0
0
255
255
255
0
0
255
255
255
0
255
0
0
255
0
255
0
0
255
0
0
255
255
0
0
0
255
0
0
255
255
255
0
0
255
255
0
0
255
255
255
255
255
0
0
255
0
0
0
255
255
255
0
0
255
0
0
255
255
255
255
255
0
0
0
255
255
255
255
0
0
255
255
255
255
0
0
255
255
0
0
255
255
0
0
255
255
0
0
255
255
0
0
0
0
0
0
0
255
255
255
0
0
0
255
255
255
255
255
0
0
255
255
255
255
255
255
0
0
255
255
0
255
255
0
0
255
255
255
255
255
255
255
255
255
0
0
255
255
255
255
255
0
0
255
255
255
255
255
255
255
255
255
255
255
255
255
255
255
255
255
255
255
255
255
255
255
255
255
255
255
255
0
0
0
0
0
255
255
255
0
0
255
255
0
0
255
0
0
255
255
255
255
255
255
0
0
255
255
0
0
255
255
0
0
0
0
0
0
255
255
255
0
0
255
255
255
255
255
0
0
255
255
0
0
255
255
255
0
0
255
255
0
0
255
255
255
0
0
255
255
255
255
255
255
255
255
0
0
255
255
255
0
0
0
0
255
255
255
255
255
0
0
255
255
255
255
0
0
0
0
0
0
0
255
0
0
255
255
0
0
255
255
0
0
255
255
0
0
255
255
255
0
0
255
255
0
0
255
0
0
255
255
0
0
255
255
255
0
0
255
255
0
0
255
255
0
0
0
0
255
255
255
255
255
0
0
255
255
255
255
0
0
255
255
0
0
255
255
0
0
255
255
0
0
255
255
0
0
0
0
0
0
0
255
255
255
0
0
0
255
255
255
0
0
255
255
0
0
255
255
255
255
0
0
255
255
255
255
255
255
0
0
255
255
255
255
255
255
255
0
0
255
255
255
255
255
0
0
255
255
255
255
255
255
0
0
0
0
0
255
0
0
0
0
0
255
255
255
0
0
0
0
0
0
0
0
255
255
255
255
255
255
255
255
255
255
255
255
255
255
255
255
255
0
0
255
0
0
255
255
0
0
0
0
0
255
255
255
255
0
0
255
255
0
0
255
0
0
255
255
0
0
255
255
255
255
255
255
255
255
255
255
255
255
0
0
255
255
255
255
255
255
0
0
255
255
255
255
255
0
0
255
255
0
0
255
255
255
0
0
255
255
255
255
255
255
0
0
255
255
255
255
255
255
255
255
255
255
255
255
255
255
0
0
255
255
255
255
0
0
255
255
255
255
255
255
0
0
0
255
255
0
0
255
255
255
0
0
255
255
255
255
0
0
255
255
0
0
255
255
0
0
255
255
0
0
255
255
255
255
255
255
0
0
255
255
0
0
255
255
0
0
255
255
0
0
255
255
0
0
255
255
255
255
0
0
255
255
255
255
0
0
255
255
0
0
255
255
255
255
255
0
0
255
255
255
255
255
0
0
255
255
255
255
255
255
0
0
255
255
255
255
255
255
0
0
255
255
255
255
0
0
0
0
0
0
255
255
255
255
0
0
255
255
255
255
255
255
255
255
255
255
255
255
0
0
255
255
255
255
255
255
0
0
255
255
0
0
255
255
255
0
0
255
255
0
0
255
255
0
0
255
255
0
0
255
255
0
0
255
0
0
255
255
255
0
0
255
255
255
0
255
255
0
0
255
255
255
255
255
255
0
0
255
255
0
0
255
0
0
255
255
0
0
255
255
255
255
0
0
255
255
255
255
0
0
255
255
0
0
255
255
255
0
0
255
255
0
0
255
255
0
0
255
255
0
0
255
0
0
255
255
255
0
0
255
0
0
255
255
255
0
0
255
255
0
0
255
0
0
255
255
255
0
0
255
255
255
255
255
255
0
0
0
0
255
255
255
255
0
0
255
255
0
0
255
0
0
255
255
0
0
255
255
255
255
0
0
255
255
255
255
0
0
255
255
0
0
255
255
255
0
0
0
0
255
255
255
0
0
0
255
0
0
0
255
255
0
0
255
0
0
255
255
255
255
0
0
255
255
255
255
255
0
0
255
255
0
0
255
255
0
0
255
255
255
255
255
255
255
255
255
255
0
0
255
255
255
255
0
0
255
255
255
255
255
255
255
255
255
255
255
255
255
255
255
255
255
255
255
255
255
255
255
255
255
255
255
0
0
255
255
0
0
255
255
255
0
0
255
255
0
0
255
0
0
255
255
0
0
255
255
0
0
255
255
0
0
255
255
0
0
255
255
255
255
255
255
255
0
0
255
255
255
255
255
255
0
0
0
0
0
255
255
255
0
0
255
255
0
0
255
255
255
0
0
255
255
255
255
0
0
255
255
0
0
255
255
255
0
0
255
0
0
255
255
255
255
0
0
255
255
255
255
0
0
255
0
255
0
0
255
0
0
255
255
0
0
255
255
0
0
255
255
0
0
255
255
255
0
0
0
0
0
255
255
255
0
0
0
0
0
255
255
255
0
0
255
255
255
255
255
255
255
255
255
0
0
255
255
255
255
0
0
255
0
255
255
0
0
255
255
0
0
255
255
255
0
0
0
0
255
255
255
0
0
0
0
0
0
0
255
255
0
0
255
0
0
255
255
255
0
0
0
0
0
255
255
255
0
0
255
255
0
255
255
255
255
0
0
255
255
255
255
255
255
255
0
0
255
255
255
255
255
0
0
255
255
255
255
255
255
255
255
0
0
0
255
0
0
0
255
255
255
255
255
0
0
0
0
0
0
0
0
255
255
0
0
255
255
255
255
255
255
255
255
255
255
255
255
255
0
0
255
0
0
255
255
255
255
0
0
255
255
255
255
0
0
255
255
255
0
0
255
255
0
0
0
255
0
0
255
255
255
255
255
255
255
255
255
255
255
255
0
0
255
255
255
255
0
0
255
255
255
255
255
255
255
255
255
255
255
255
255
255
255
255
255
255
255
255
255
255
255
0
0
255
255
255
255
255
255
255
255
255
255
255
255
255
255
0
0
255
255
255
255
0
255
255
255
255
255
255
255
255
0
0
0
0
0
255
255
0
0
0
0
0
0
255
255
0
0
0
0
0
0
255
255
255
0
0
0
0
255
255
255
255
255
255
0
0
0
0
255
255
0
0
0
0
255
255
255
255
0
0
0
0
255
255
255
255
255
0
0
255
255
255
255
255
0
0
0
0
255
255
255
255
0
0
0
255
255
255
255
255
255
0
0
255
255
255
255
255
255
0
0
255
255
255
255
255
255
255
0
0
255
255
255
255
255
255
255
255
255
255
255
255
0
0
255
255
255
255
255
255
255
0
0
255
255
255
255
255
0
0
0
0
255
255
255
0
0
255
255
0
0
255
255
0
0
0
0
0
0
255
255
255
255
0
0
0
0
255
255
0
0
0
0
0
255
255
255
0
0
0
0
0
0
0
255
0
0
0
0
255
255
255
255
255
255
0
0
0
0
0
255
0
0
255
255
0
0
255
255
255
0
0
0
0
255
255
255
255
0
0
0
0
255
255
255
0
0
0
255
255
0
0
255
0
0
0
0
0
0
0
255
0
0
255
255
255
0
0
255
0
0
255
255
255
0
0
255
255
255
0
0
0
255
255
255
0
0
0
0
255
255
255
255
255
255
255
0
0
0
255
255
0
0
0
255
255
0
0
255
255
0
0
0
0
255
255
255
255
0
0
0
0
255
255
255
0
0
0
0
0
0
255
255
255
255
0
0
255
255
255
255
0
0
255
255
255
0
0
255
0
0
255
255
255
0
0
255
255
0
0
0
0
255
255
255
0
0
0
0
0
0
0
255
255
0
0
0
0
255
255
255
255
255
255
255
255
255
0
255
255
0
0
0
0
255
255
255
255
255
255
255
255
255
255
255
255
255
255
255
255
255
255
255
255
255
255
255
255
255
255
255
255
0
0
0
255
0
0
255
0
0
255
0
0
0
255
255
255
0
0
0
0
255
255
255
255
0
0
0
255
0
0
255
255
0
0
0
0
255
255
255
0
0
0
0
255
255
255
255
255
255
255
255
0
0
255
255
0
0
0
255
255
0
0
255
255
0
0
0
0
255
255
255
0
0
255
255
0
0
255
255
0
0
0
255
255
0
0
255
255
0
0
0
0
255
255
255
0
0
255
255
255
0
0
255
0
0
255
255
0
0
255
255
255
0
0
0
0
255
255
255
255
0
0
255
255
255
255
255
255
255
255
255
0
0
255
255
0
0
0
0
255
255
255
255
0
0
0
0
0
255
255
255
255
255
255
0
0
255
255
255
255
0
0
0
255
0
0
255
255
255
0
0
255
255
255
255
255
0
0
255
0
0
255
255
0
0
255
255
255
0
0
255
255
255
255
255
0
0
255
255
0
0
0
0
0
0
255
255
255
255
255
0
0
0
255
255
255
255
255
0
0
255
255
255
0
0
0
255
255
255
255
255
255
255
255
255
255
255
0
255
0
255
255
255
255
255
255
255
255
255
255
255
255
255
255
255
255
255
255
255
255
255
255
255
255
255
255
255
255
255
255
255
255
255
255
255
255
255
255
255
255
255
255
255
255
255
255
255
255
255
255
255
255
255
255
255
255
255
255
255
255
255
255
255
255
255
255
255
255
255
255
255
255
255
255
255
255
255
255
255
255
255
255
255
255
255
255
255
255
255
255
255
255
255
255
255
255
255
255
255
255
255
255
255
255
0
0
255
255
255
255
255
255
255
255
255
255
255
255
255
255
255
255
255
255
255
255
255
255
255
255
255
255
255
255
255
255
255
255
255
255
255
255
255
255
255
255
255
255
255
255
255
255
255
255
255
255
255
255
255
255
255
255
255
255
255
255
255
255
255
255
255
255
255
255
255
255
255
255
255
255
255
255
255
255
255
255
255
255
255
255
255
255
255
255
255
255
255
255
255
255
255
255
255
255
255
255
255
255
255
255
255
255
255
255
255
255
255
255
255
255
255
255
255
255
0
0
255
255
255
255
255
255
255
255
255
255
255
255
255
255
255
255
255
255
255
255
255
255
255
255
255
255
255
255
255
255
255
255
255
255
255
255
255
255
255
255
255
255
255
255
255
255
255
255
255
255
255
255
255
255
255
255
255
255
255
255
255
255
255
255
255
255
255
255
255
255
255
255
255
255
255
255
255
255
255
255
255
255
255
255
255
255
255
255
255
255
255
255
255
255
255
255
255
255
255
255
255
255
255
255
255
255
255
255
255
255
255
255
255
255
255
255
255
255
255
255
255
255
255
255
255
255
255
255
255
255
255
255
255
255
255
255
255
255
255
255
255
255
255
255
255
255
255
255
255
255
255
255
255
255
255
255
255
255
255
255
255
255
255
255
255
255
255
255
255
255
255
255
255
255
255
255
255
255
255
255
255
255
255
255
255
255
255
255
255
255
255
255
255
255
255
255
255
255
255
255
255
255
255
255
255
255
255
255
255
255
255
255
255
255
255
255
255
255
255
255
255
255
255
255
255
255
255
255
255
255
255
255
255
255
255
255
255
255
255
255
255
255
255
255
255
255
255
255
255
255
255
255
255
255
255
255
255
255
255
255
255
255
255
255
255
255
255
255
255
255
255
255
255
255
255
255
255
255
255
255
255
255
255
255
255
0
0
0
0
0
0
0
0
255
255
255
255
255
255
255
255
255
255
255
255
255
255
255
255
255
255
255
255
255
255
255
255
255
255
255
255
255
255
255
255
255
255
255
255
255
255
255
255
255
255
255
255
255
255
255
255
255
255
255
255
255
255
255
255
0
0
0
0
0
255
255
255
255
255
255
255
255
255
255
255
255
255
255
255
255
255
255
255
255
0
0
0
0
255
255
255
255
255
255
255
255
255
255
255
255
255
255
255
255
255
255
255
255
255
255
255
255
255
255
255
255
255
255
255
255
255
255
255
255
255
255
255
255
255
255
255
0
0
0
0
255
255
255
255
255
255
255
0
0
0
0
255
255
255
255
255
255
255
255
255
255
255
255
255
255
255
255
255
255
255
255
255
255
255
255
255
255
255
255
255
255
255
255
255
255
255
255
255
255
255
255
255
255
255
255
255
255
255
255
255
255
255
255
255
255
255
255
255
0
0
0
0
0
255
255
255
255
255
255
255
255
255
255
255
255
255
255
255
255
255
255
255
255
255
255
255
255
255
255
255
255
255
255
255
255
255
255
255
255
255
255
255
255
255
255
255
255
255
255
255
255
255
255
255
255
255
255
255
255
255
255
255
